<svg width="27" height="27" viewBox="0 0 27 27" fill="none" xmlns="http://www.w3.org/2000/svg">
<path d="M25.875 3.37496C24.7977 4.13487 23.6049 4.71608 22.3425 5.09621C21.665 4.31716 20.7645 3.76499 19.7629 3.51438C18.7613 3.26377 17.7069 3.32681 16.7423 3.69497C15.7777 4.06314 14.9495 4.71866 14.3696 5.57289C13.7897 6.42712 13.4862 7.43884 13.5 8.47121V9.59621C11.523 9.64747 9.56393 9.209 7.79738 8.31984C6.03084 7.43067 4.51161 6.11843 3.375 4.49996C3.375 4.49996 -1.125 14.625 9 19.125C6.68309 20.6977 3.92305 21.4863 1.125 21.375C11.25 27 23.625 21.375 23.625 8.43746C23.624 8.1241 23.5938 7.8115 23.535 7.50371C24.6832 6.37139 25.4934 4.94176 25.875 3.37496Z" fill="#101010"/>
</svg>
